<svg xmlns="http://www.w3.org/2000/svg" xml:space="preserve" enable-background="new 0 0 24 24" viewBox="0 0 24 24" id="share-file">
  <g id="_icons">
    <g>
      <path d="M4,12c0,2.231,0.2256,4.4873,0.6699,6.707c0.3105,1.5439,1.5049,2.73,2.9639,2.9507
			c1.0879,0.1719,2.1982,0.2803,3.2998,0.3223c0.0127,0.0005,0.0264,0.0005,0.0391,0.0005c0.5342,0,0.9775-0.4229,0.998-0.9619
			c0.0215-0.5518-0.4092-1.0161-0.9609-1.0376c-1.0225-0.0386-2.0537-0.1392-3.0703-0.2998
			c-0.6377-0.0962-1.1631-0.6465-1.3086-1.3677C6.2119,16.2236,6,14.0991,6,12c0-0.429,0.027-0.8652,0.0452-1.2997
			c0.2336,0.0139,0.4672,0.0267,0.7009,0.0267c0.9697,0,1.9385-0.1191,2.8965-0.3569c1.3408-0.3354,2.3975-1.314,2.8232-2.6079
			c0.2422-0.71,0.3643-1.4644,0.3643-2.2422c0-0.3657-0.0283-0.7324-0.0938-1.1748L12.684,4.0309
			c1.1312,0.0292,2.2606,0.1113,3.3766,0.2879c0.6377,0.0962,1.1631,0.6465,1.3086,1.3682c0.1602,0.7983,0.293,1.6172,0.3936,2.4346
			c0.0674,0.5469,0.5615,0.9341,1.1143,0.8701c0.5488-0.0679,0.9375-0.5669,0.8701-1.1152C19.6406,7.0103,19.5,6.1411,19.3301,5.293
			c-0.3105-1.5439-1.5049-2.73-2.9639-2.9507c-1.5986-0.2524-3.2412-0.3643-4.8574-0.3379
			c-0.0455,0.001-0.0999,0.0112-0.1523,0.0198c-0.007,0.001-0.0135-0.0019-0.0205-0.0007
			c-0.0049,0.0009-0.0086,0.0043-0.0135,0.0052c-0.0128,0.0024-0.0278,0.0025-0.0392,0.0051
			c-0.0645,0.0142-0.127,0.0347-0.1875,0.0615C7.957,3.4834,5.5049,5.9927,4.168,9.2119c-0.021,0.05-0.025,0.1045-0.0376,0.157
			C4.1236,9.3969,4.106,9.4192,4.1016,9.4482C4.0997,9.46,4.1046,9.4708,4.1031,9.4825C4.1014,9.4974,4.0939,9.511,4.0928,9.5259
			C4.0312,10.3511,4,11.1831,4,12z M10.7391,4.5251l0.0217,0.1297c0.0469,0.3237,0.0693,0.5991,0.0693,0.8652
			c0,0.5586-0.0869,1.0962-0.2607,1.6074c-0.2129,0.6479-0.7402,1.1348-1.4102,1.3018C8.3378,8.6331,7.4839,8.7199,6.6368,8.7119
			C7.6136,6.9756,9.0204,5.5352,10.7391,4.5251z"></path>
      <path d="M20,16c1.0635,0,2.0605-0.5767,2.6152-1.5264C22.8672,14.0181,23,13.5088,23,13s-0.1328-1.0181-0.3965-1.4951
			C22.0605,10.5767,21.0635,10,20,10c-1.6543,0-3,1.3457-3,3c0,0.2482,0.0369,0.4917,0.0967,0.7304l-1.3222,0.8816
			C15.2628,14.2307,14.6505,14,14,14c-1.6543,0-3,1.3457-3,3s1.3457,3,3,3c0.7864,0,1.534-0.3184,2.0815-0.843l0.9551,0.4814
			C17.0219,19.7584,17,19.8762,17,20c0,1.6543,1.3457,3,3,3c1.0703,0,2.0684-0.5786,2.6006-1.5039C22.8613,21.0474,23,20.5303,23,20
			s-0.1387-1.0474-0.3965-1.4907C22.0684,17.5786,21.0703,17,20,17c-0.8074,0-1.5383,0.3242-2.0781,0.8447l-0.964-0.4859
			C16.9727,17.239,17,17.1206,17,17c0-0.2494-0.0337-0.4985-0.0942-0.7386l1.3136-0.8759C18.7357,15.7686,19.3511,16,20,16z M20,12
			c0.3555,0,0.6914,0.1973,0.8652,0.4932C20.9268,12.605,21,12.7832,21,13s-0.0732,0.395-0.123,0.4854
			c-0.3574,0.6123-1.3232,0.6289-1.7109,0.0757C19.0557,13.3931,19,13.2046,19,13C19,12.4487,19.4482,12,20,12z M14,18
			c-0.5518,0-1-0.4487-1-1s0.4482-1,1-1c0.3291,0,0.6406,0.1689,0.8652,0.4932C14.9268,16.605,15,16.7832,15,17
			c0,0.1509-0.0371,0.3081-0.123,0.4854C14.6914,17.8027,14.3555,18,14,18z M20,19c0.3564,0,0.6895,0.1938,0.8721,0.5117
			C20.9551,19.6523,21,19.8262,21,20s-0.0449,0.3477-0.1309,0.4937C20.6895,20.8062,20.3564,21,20,21c-0.5518,0-1-0.4487-1-1
			S19.4482,19,20,19z"></path>
    </g>
  </g>
</svg>
